<?xml version="1.0" encoding="iso-8859-1"?>
<!-- Generator: Adobe Illustrator 19.0.0, SVG Export Plug-In . SVG Version: 6.00 Build 0)  -->
<svg xmlns="http://www.w3.org/2000/svg" xmlns:xlink="http://www.w3.org/1999/xlink" version="1.1" id="Layer_1" x="0px" y="0px" viewBox="0 0 512 512" style="enable-background:new 0 0 512 512;" xml:space="preserve">
<path style="fill:#FFA233;" d="M246.462,110.374c6.154,6.157,14.659,9.965,24.052,9.965c18.789,0,34.018-15.232,34.018-34.018  c0-18.788-15.231-34.016-34.018-34.016c-18.787,0-34.016,15.228-34.016,34.016C236.498,95.716,240.305,104.218,246.462,110.374"/>
<g>
	<path style="fill:#85C8EB;" d="M302.05,295.41h110.318c22.682,0,41.071-18.392,41.071-41.073c0-22.683-18.389-41.073-41.071-41.073   c-11.225,0-21.393,4.507-28.809,11.804c-4.322-23.957-25.264-42.135-50.463-42.135c-27.94,0-50.649,22.341-51.268,50.136   c-3.341-1.181-6.935-1.83-10.683-1.83c-17.719,0-32.085,14.366-32.085,32.087c0,17.718,14.364,32.084,32.085,32.084h6.12"/>
	<path style="fill:#85C8EB;" d="M447.728,233.451c-7.152-12.08-20.305-20.188-35.361-20.188c-11.225,0-21.393,4.507-28.809,11.804   c-1.729-9.593-6.132-18.255-12.399-25.196c3.335-10.31,13.009-17.768,24.429-17.768c7.013,0,13.368,2.819,18.004,7.377   c2.702-14.973,15.793-26.334,31.546-26.334c17.465,0,31.659,13.962,32.046,31.336c2.089-0.741,4.334-1.145,6.676-1.145   c11.076,0,20.054,8.981,20.054,20.053c0,11.077-8.978,20.057-20.054,20.057h-10.319"/>
</g>
<path style="fill:#B0E046;" d="M163.977,206.933c2.315-5.5,3.598-11.543,3.598-17.887c0-25.478-20.652-46.129-46.128-46.129  S75.32,163.569,75.32,189.047c0,6.343,1.282,12.386,3.599,17.889c-10.038,11.543-16.216,27.156-16.216,44.359  c0,35.537,26.303,64.345,58.744,64.345c32.446,0,58.745-28.809,58.745-64.345C180.192,234.092,174.018,218.478,163.977,206.933z"/>
<g style="opacity:0.1;">
	<path style="fill:#231F20;" d="M119.403,146.678c-1.012-2.237-3.406-3.509-5.827-3.088c-22.167,3.829-38.256,22.946-38.256,45.457   c0,6.198,1.21,12.217,3.599,17.889c-10.457,12.024-16.216,27.778-16.216,44.359c0,30.516,19.806,57.043,47.096,63.075   c0.389,0.086,0.779,0.128,1.164,0.128c2.077,0,4.017-1.206,4.905-3.161c1.052-2.316,0.341-5.054-1.707-6.567   c-16.391-12.093-26.177-32.083-26.177-53.475c0-15.438,5.074-30.365,14.287-42.032c1.14-1.444,1.464-3.369,0.861-5.107   c-1.68-4.839-2.532-9.922-2.532-15.109c0-13.988,6.297-27.092,17.276-35.952C119.789,151.554,120.417,148.915,119.403,146.678z"/>
</g>
<path style="fill:#36CC6B;" d="M153.174,305.436c-9.152,6.447-20.036,10.203-31.727,10.203c-28.261,0-51.855-21.865-57.469-50.994  l-2.606-1.191c-35.513-16.767-53.287,7.357-53.287,24.955v215.504h86.331L340.799,391.24L153.174,305.436z"/>
<path style="fill:#B0E046;" d="M191.039,430.93c-9.616,0-18.325,3.857-24.675,10.11c-3.704-20.52-21.642-36.089-43.226-36.089  c-18.183,0-33.768,11.052-40.445,26.8c-2.427-0.529-4.949-0.82-7.534-0.82c-9.613,0-18.324,3.857-24.675,10.11  c-3.655-20.257-21.185-35.679-42.4-36.072v98.946h6.135h27.927h15.73h36.538l125.753-57.509  C213.848,437.068,203.164,430.93,191.039,430.93z"/>
<path style="fill:#E8B143;" d="M474.053,330.301L94.417,503.914h409.498V344.287C503.915,334.424,493.955,320.905,474.053,330.301z"/>
<g>
	<path style="fill:#231F20;" d="M484.01,185.255c-4.482-17.29-20.343-30.193-38.873-30.193c-15.424,0-29.068,8.732-35.77,21.884   c-4.284-1.918-8.958-2.928-13.78-2.928c-10.624,0-20.296,4.926-26.557,12.928c-10.038-7.629-22.53-12.098-35.937-12.098   c-15.626,0-30.378,6.021-41.536,16.954c-8.823,8.643-14.624,19.591-16.829,31.509c-1.189-0.107-2.384-0.158-3.584-0.158   c-22.15,0-40.169,18.021-40.169,40.172c0,22.148,18.019,40.169,40.169,40.169h6.12c4.466,0,8.084-3.618,8.084-8.084   s-3.618-8.084-8.084-8.084h-6.12c-13.233,0-24-10.766-24-24c0-13.235,10.766-24.004,24-24.004c2.732,0,5.42,0.46,7.988,1.369   c2.448,0.866,5.157,0.503,7.289-0.97c2.133-1.472,3.431-3.88,3.488-6.472c0.517-23.287,19.89-42.232,43.185-42.232   c12.447,0,23.816,5.284,31.765,13.895c0.1,0.125,0.19,0.258,0.299,0.378c4.681,5.184,8.008,11.376,9.742,18.057   c0.043,0.166,0.084,0.334,0.125,0.5c0.216,0.873,0.412,1.75,0.572,2.638l0.003,0.018c0.044,0.244,0.114,0.475,0.18,0.711   c0.033,0.122,0.054,0.248,0.093,0.368c0.001,0.005,0.004,0.011,0.006,0.016c0.805,2.443,2.736,4.382,5.23,5.174   c0.715,0.226,1.445,0.349,2.174,0.374c2.185,0.073,4.342-0.741,5.943-2.316c4.272-4.204,9.491-7.109,15.165-8.514   c2.579-0.638,5.253-0.967,7.973-0.967c0.673,0,1.343,0.026,2.01,0.067c0.146,0.009,0.29,0.023,0.434,0.033   c0.578,0.044,1.154,0.099,1.727,0.174c0.077,0.01,0.153,0.019,0.23,0.029c6.349,0.867,12.305,3.581,17.123,7.721   c0.002,0.002,0.004,0.004,0.008,0.006c0.518,0.446,1.023,0.91,1.514,1.388c0.025,0.024,0.05,0.047,0.074,0.071   c0.478,0.468,0.941,0.953,1.391,1.451c0.096,0.107,0.188,0.217,0.281,0.324c0.317,0.359,0.625,0.727,0.926,1.101   c0.157,0.196,0.314,0.393,0.466,0.593c0.246,0.32,0.484,0.648,0.718,0.978c0.142,0.199,0.289,0.396,0.427,0.599   c0.326,0.481,0.638,0.973,0.94,1.475c2.992,4.964,4.718,10.775,4.718,16.981c0,18.189-14.798,32.988-32.987,32.988H302.05   c-4.466,0-8.084,3.618-8.084,8.084s3.618,8.084,8.084,8.084h110.318c27.105,0,49.155-22.052,49.155-49.156   c0-8.952-2.417-17.344-6.615-24.581c-0.072-0.141-0.14-0.285-0.222-0.423c-0.068-0.115-0.146-0.223-0.216-0.337   c-0.435-0.72-0.886-1.431-1.356-2.127c-0.25-0.37-0.515-0.727-0.774-1.088c-0.294-0.411-0.591-0.819-0.897-1.22   c-0.271-0.355-0.544-0.703-0.825-1.049c-0.371-0.459-0.753-0.91-1.14-1.355c-0.216-0.248-0.425-0.501-0.646-0.745   c-0.63-0.696-1.281-1.372-1.949-2.033c-0.114-0.112-0.233-0.22-0.348-0.332c-0.641-0.621-1.3-1.223-1.974-1.809   c-0.072-0.063-0.144-0.126-0.218-0.189c-7.033-6.041-15.782-10.128-25.41-11.419c-0.122-0.016-0.243-0.03-0.364-0.046   c-0.846-0.108-1.699-0.192-2.557-0.255c-0.218-0.016-0.434-0.037-0.652-0.05c-0.992-0.06-1.988-0.1-2.994-0.1   c-1.084,0-2.162,0.036-3.235,0.105c-0.662,0.043-1.315,0.123-1.971,0.192c-0.407,0.043-0.818,0.067-1.223,0.12   c-0.936,0.122-1.863,0.28-2.785,0.455c-0.121,0.023-0.244,0.036-0.363,0.059c-0.899,0.178-1.787,0.39-2.672,0.617   c-0.14,0.037-0.284,0.061-0.424,0.098c-0.926,0.246-1.84,0.527-2.748,0.826c-0.094,0.031-0.191,0.054-0.285,0.086   c-0.932,0.314-1.853,0.662-2.764,1.032c-0.066,0.027-0.134,0.047-0.199,0.074c-0.95,0.39-1.886,0.813-2.81,1.262   c-0.025,0.012-0.05,0.022-0.074,0.033c-0.902,0.441-1.79,0.915-2.666,1.412c-0.044,0.025-0.089,0.045-0.134,0.07   c-1.927-4.701-4.434-9.076-7.421-13.052c3.143-5.135,8.76-8.378,14.995-8.378c4.638,0,9.02,1.796,12.336,5.056   c2.135,2.1,5.257,2.849,8.115,1.94c2.855-0.908,4.974-3.32,5.507-6.268c2.058-11.406,11.979-19.686,23.59-19.686   c12.925,0,23.676,10.512,23.964,23.432c0.058,2.593,1.356,5.001,3.49,6.474c2.134,1.472,4.846,1.833,7.292,0.966   c1.274-0.452,2.612-0.68,3.976-0.68c6.601,0,11.97,5.369,11.97,11.969c0,6.602-5.369,11.973-11.97,11.973h-10.319   c-4.466,0-8.084,3.618-8.084,8.084c0,4.466,3.618,8.084,8.084,8.084h10.319c15.516,0,28.138-12.624,28.138-28.142   C511.999,197.928,499.458,185.337,484.01,185.255z"/>
	<path style="fill:#231F20;" d="M270.514,128.424c-11.248,0-21.82-4.379-29.769-12.334c-7.951-7.951-12.33-18.524-12.33-29.767   c0-23.213,18.886-42.1,42.1-42.1c23.216,0,42.102,18.886,42.102,42.1C312.616,109.536,293.729,128.424,270.514,128.424z    M270.514,60.39c-14.299,0-25.932,11.633-25.932,25.932c0,6.925,2.698,13.438,7.597,18.336c4.897,4.9,11.408,7.598,18.335,7.598   c14.3,0,25.934-11.634,25.934-25.934C296.448,72.022,284.813,60.39,270.514,60.39z"/>
	<path style="fill:#231F20;" d="M348.752,94.406h-22.111c-4.466,0-8.084-3.618-8.084-8.084s3.618-8.084,8.084-8.084h22.111   c4.465,0,8.084,3.618,8.084,8.084S353.217,94.406,348.752,94.406z"/>
	<path style="fill:#231F20;" d="M214.388,94.406h-22.112c-4.466,0-8.084-3.618-8.084-8.084s3.618-8.084,8.084-8.084h22.112   c4.466,0,8.084,3.618,8.084,8.084S218.853,94.406,214.388,94.406z"/>
	<path style="fill:#231F20;" d="M310.203,54.719c-2.068,0-4.138-0.789-5.716-2.367c-3.158-3.157-3.158-8.276-0.001-11.432   l15.636-15.637c3.158-3.158,8.277-3.157,11.432-0.001c3.158,3.157,3.158,8.276,0.001,11.432l-15.636,15.637   C314.341,53.929,312.271,54.719,310.203,54.719z"/>
	<path style="fill:#231F20;" d="M215.192,149.731c-2.068,0-4.138-0.789-5.716-2.367c-3.158-3.157-3.158-8.276-0.001-11.432   l15.635-15.637c3.158-3.158,8.275-3.157,11.433-0.001c3.158,3.157,3.158,8.276,0.001,11.432l-15.635,15.637   C219.329,148.942,217.261,149.731,215.192,149.731z"/>
	<path style="fill:#231F20;" d="M270.514,38.278L270.514,38.278c-4.466,0-8.084-3.62-8.084-8.084l0.001-22.11   c0-4.466,3.62-8.084,8.084-8.084l0,0c4.466,0,8.084,3.62,8.084,8.084l-0.001,22.11C278.598,34.658,274.977,38.278,270.514,38.278z"/>
	<path style="fill:#231F20;" d="M270.514,172.645c-4.466,0-8.084-3.618-8.084-8.084v-22.112c0-4.466,3.618-8.084,8.084-8.084   c4.466,0,8.084,3.618,8.084,8.084v22.112C278.598,169.025,274.978,172.645,270.514,172.645z"/>
	<path style="fill:#231F20;" d="M230.827,54.719c-2.068,0-4.138-0.789-5.717-2.367l-15.635-15.635   c-3.157-3.158-3.157-8.276,0-11.433c3.158-3.156,8.276-3.156,11.433,0l15.635,15.635c3.157,3.158,3.157,8.276,0,11.433   C234.964,53.929,232.894,54.719,230.827,54.719z"/>
	<path style="fill:#231F20;" d="M325.839,149.731c-2.068,0-4.138-0.789-5.717-2.367l-15.636-15.636   c-3.157-3.158-3.157-8.276,0-11.433c3.158-3.156,8.276-3.156,11.433,0l15.636,15.636c3.157,3.158,3.157,8.276,0,11.433   C329.977,148.942,327.907,149.731,325.839,149.731z"/>
	<path style="fill:#231F20;" d="M486.564,319.044c-5.046,0-10.416,1.327-15.874,3.905L340.799,382.35l-172.893-79.065   c12.548-13.174,20.37-31.606,20.37-51.99c0-16.851-5.342-32.96-15.13-45.888c1.67-5.27,2.514-10.753,2.514-16.36   c0-29.893-24.32-54.214-54.212-54.214s-54.211,24.32-54.211,54.214c0,5.607,0.844,11.091,2.515,16.362   c-9.789,12.929-15.131,29.038-15.131,45.886c0,0.298,0.017,0.591,0.02,0.887c-5.394-1.641-10.612-2.473-15.595-2.473   C14.604,249.709,0,269.387,0,288.411v116.558v98.945c0,4.466,3.618,8.084,8.084,8.084h86.331h120.7c0.01,0,0.019,0.002,0.029,0.002   c0.013,0,0.026-0.002,0.039-0.002h116.345c0.01,0,0.019,0.002,0.029,0.002c0.013,0,0.026-0.002,0.039-0.002h172.319   c4.466,0,8.084-3.618,8.084-8.084V344.287C511.999,331.878,502.485,319.044,486.564,319.044z M222.497,436.451   c-8.108-8.609-19.435-13.605-31.458-13.605c-7.186,0-14.116,1.746-20.293,5.037c-7.124-16.201-22.146-27.797-39.861-30.443v-22.013   l26.877-17.572c3.737-2.444,4.785-7.454,2.342-11.191c-2.444-3.736-7.455-4.785-11.191-2.342l-18.029,11.787v-33.115   c0.103-0.016,0.207-0.031,0.312-0.049c0.2-0.031,0.403-0.059,0.603-0.094c0.936-0.157,1.867-0.341,2.794-0.542   c0.238-0.052,0.474-0.107,0.711-0.161c0.896-0.205,1.788-0.426,2.675-0.67c0.063-0.017,0.126-0.032,0.189-0.05   c0.956-0.267,1.904-0.565,2.847-0.878c0.18-0.06,0.36-0.12,0.539-0.181c1.956-0.669,3.884-1.437,5.777-2.3   c0.057-0.027,0.115-0.052,0.174-0.079c2.163-0.994,4.285-2.107,6.351-3.351l167.504,76.601L222.497,436.451z M85.019,212.24   c2.023-2.326,2.547-5.601,1.351-8.442c-1.967-4.674-2.965-9.636-2.965-14.752c0-20.978,17.066-38.045,38.043-38.045   c20.978,0,38.044,17.067,38.044,38.045c0,5.115-0.997,10.078-2.964,14.75c-1.196,2.841-0.673,6.116,1.351,8.442   c9.177,10.551,14.23,24.422,14.23,39.056c0,20.147-9.591,37.847-23.965,47.786c-0.286,0.198-0.573,0.393-0.862,0.584   c-0.349,0.232-0.704,0.455-1.06,0.677c-0.356,0.222-0.711,0.443-1.071,0.655c-0.475,0.281-0.955,0.556-1.44,0.82   c-0.32,0.175-0.643,0.34-0.967,0.507c-0.326,0.168-0.652,0.333-0.981,0.494c-0.337,0.164-0.674,0.328-1.013,0.484   c-0.368,0.169-0.741,0.328-1.112,0.488c-0.531,0.227-1.067,0.445-1.605,0.653c-0.348,0.135-0.695,0.268-1.047,0.393   c-0.356,0.128-0.712,0.249-1.07,0.368c-0.354,0.118-0.71,0.229-1.067,0.337c-0.335,0.102-0.669,0.209-1.007,0.304   c-0.622,0.175-1.248,0.334-1.879,0.483c-0.313,0.073-0.627,0.138-0.941,0.205c-0.046,0.01-0.093,0.018-0.139,0.028v-61.475   c0-4.466-3.618-8.084-8.084-8.084c-4.466,0-8.084,3.618-8.084,8.084v25.25l-4.289-2.805c-3.738-2.444-8.747-1.393-11.191,2.342   c-2.444,3.738-1.395,8.747,2.342,11.191l13.137,8.589v17.392c-0.043-0.006-0.086-0.012-0.13-0.018   c-0.604-0.093-1.205-0.194-1.802-0.31c-0.055-0.011-0.11-0.022-0.165-0.032c-14.83-2.95-27.733-13.19-35.149-27.514   c-0.077-0.149-0.155-0.295-0.231-0.444c-0.253-0.501-0.497-1.009-0.737-1.52c-0.128-0.274-0.257-0.548-0.38-0.825   c-0.2-0.443-0.395-0.889-0.584-1.34c-0.15-0.357-0.295-0.717-0.439-1.078c-0.161-0.403-0.321-0.806-0.473-1.214   c-0.158-0.426-0.308-0.856-0.458-1.287c-0.127-0.365-0.258-0.73-0.378-1.099c-0.168-0.517-0.323-1.042-0.479-1.567   c-0.088-0.299-0.184-0.593-0.268-0.894c-0.224-0.803-0.431-1.615-0.624-2.433c-0.091-0.388-0.167-0.783-0.25-1.174   c-0.894-4.177-1.381-8.525-1.381-13.002C70.787,236.663,75.84,222.792,85.019,212.24z M39.046,265.877   c5.368,0,11.363,1.482,17.912,4.444c0.155,0.618,0.33,1.227,0.499,1.838c0.074,0.265,0.14,0.535,0.217,0.798   c0.622,2.148,1.336,4.249,2.131,6.301c0.099,0.255,0.205,0.506,0.306,0.76c0.302,0.753,0.611,1.5,0.936,2.24   c0.144,0.329,0.292,0.654,0.441,0.981c0.295,0.648,0.599,1.29,0.911,1.926c0.18,0.368,0.361,0.735,0.546,1.098   c0.291,0.567,0.592,1.127,0.896,1.685c0.22,0.405,0.437,0.813,0.664,1.213c0.25,0.439,0.512,0.869,0.771,1.301   c1.246,2.09,2.585,4.109,4.016,6.045c0.006,0.009,0.013,0.018,0.019,0.027c10,13.509,24.36,23.056,40.751,26.118   c0.13,0.024,0.259,0.052,0.389,0.075c0.672,0.121,1.346,0.226,2.023,0.326c0.397,0.059,0.794,0.113,1.193,0.165   c0.349,0.044,0.696,0.101,1.047,0.139v74.219c-15.377,2.513-28.855,11.78-36.658,25.369c-8.178-0.554-16.193,1.207-23.206,4.945   c-6.975-15.77-21.519-27.249-38.682-30.24V288.41C16.169,279.054,23.266,265.877,39.046,265.877z M16.169,414.17   c13.305,3.426,23.842,14.349,26.36,28.305c0.532,2.949,2.653,5.364,5.51,6.269c2.856,0.909,5.98,0.158,8.117-1.944   c5.099-5.021,11.848-7.787,19.003-7.787c1.927,0,3.883,0.213,5.812,0.635c3.804,0.824,7.649-1.165,9.166-4.743   c5.633-13.286,18.587-21.871,33.002-21.871c17.358,0,32.19,12.382,35.27,29.44c0.532,2.949,2.654,5.364,5.51,6.269   c2.861,0.908,5.982,0.16,8.118-1.946c5.097-5.02,11.846-7.786,19.002-7.786c5.573,0,10.915,1.712,15.375,4.792L92.655,495.829   H16.169V414.17z M495.831,495.829H368.552l99.554-45.683c4.058-1.863,5.838-6.661,3.975-10.719   c-1.863-4.057-6.658-5.838-10.719-3.975l-131.576,60.377H252.14l215.966-99.103c4.058-1.863,5.838-6.661,3.975-10.719   c-1.863-4.057-6.658-5.837-10.719-3.975L213.375,495.829h-81.842l24.971-11.42l67.029-30.653c0,0,0.002-0.001,0.004-0.002   L477.505,337.61c3.372-1.592,6.42-2.399,9.06-2.399c7.001,0,9.267,6.114,9.267,9.075v151.544H495.831z"/>
</g>
<g style="opacity:0.1;">
	<path style="fill:#231F20;" d="M52.554,260.007c-29.631-9.17-44.468,12.33-44.468,28.405v215.503h25.46V288.41   C33.545,277.902,39.886,265.074,52.554,260.007z"/>
</g>
<g style="opacity:0.1;">
	<polygon style="fill:#231F20;" points="154.871,504.39 128.977,496.961 495.822,327.143 503.084,342.787  "/>
</g>
<g>
</g>
<g>
</g>
<g>
</g>
<g>
</g>
<g>
</g>
<g>
</g>
<g>
</g>
<g>
</g>
<g>
</g>
<g>
</g>
<g>
</g>
<g>
</g>
<g>
</g>
<g>
</g>
<g>
</g>
</svg>
