<?xml version="1.0" encoding="iso-8859-1"?>
<!-- Generator: Adobe Illustrator 19.0.0, SVG Export Plug-In . SVG Version: 6.00 Build 0)  -->
<svg xmlns="http://www.w3.org/2000/svg" xmlns:xlink="http://www.w3.org/1999/xlink" version="1.1" id="Layer_1" x="0px" y="0px" viewBox="0 0 512 512" style="enable-background:new 0 0 512 512;" xml:space="preserve">
<path style="fill:#B0E046;" d="M330.869,191.935c2.499-7.54,3.863-15.675,3.863-24.159c0-39.124-28.953-70.839-64.672-70.839  c-35.716,0-64.672,31.715-64.672,70.839c0,8.484,1.367,16.619,3.863,24.159c-10.101,14.261-16.131,32.155-16.131,51.602  c0,46.545,34.448,84.274,76.939,84.274c42.493,0,76.939-37.731,76.939-84.274C347,224.091,340.97,206.196,330.869,191.935z"/>
<g style="opacity:0.1;">
	<path style="fill:#231F20;" d="M262.439,101.576c-1.064-2.353-3.648-3.622-6.161-3.02c-29.486,7.034-50.888,36.146-50.888,69.22   c0,8.291,1.3,16.418,3.863,24.158c-10.552,14.898-16.131,32.742-16.131,51.603c0,38.562,23.821,72.147,57.926,81.671   c0.482,0.135,0.969,0.201,1.451,0.201c2.063,0,4.002-1.19,4.898-3.144c1.104-2.409,0.293-5.263-1.912-6.733   c-23.055-15.35-36.819-42.265-36.819-71.995c0-17.94,5.08-35.06,14.693-49.509c0.883-1.328,1.133-2.978,0.682-4.508   c-2.062-7.004-3.108-14.32-3.108-21.745c0-24.141,11.107-46.412,29.71-59.578C262.75,106.706,263.503,103.93,262.439,101.576z"/>
</g>
<path style="fill:#36CC6B;" d="M147.358,191.935c2.499-7.54,3.863-15.675,3.863-24.159c0-39.124-28.953-70.839-64.672-70.839  c-35.716,0-64.672,31.715-64.672,70.839c0,8.484,1.366,16.619,3.863,24.159C15.64,206.196,9.611,224.09,9.611,243.537  c0,46.545,34.448,84.274,76.939,84.274c42.493,0,76.939-37.731,76.939-84.274C163.489,224.091,157.459,206.196,147.358,191.935z"/>
<g style="opacity:0.1;">
	<path style="fill:#231F20;" d="M78.726,101.613c-1.071-2.353-3.663-3.616-6.175-3.004c-29.362,7.118-50.674,36.209-50.674,69.168   c0,8.291,1.3,16.418,3.863,24.159c-10.552,14.897-16.131,32.741-16.131,51.602c0,38.429,23.718,71.985,57.678,81.601   c0.488,0.139,0.981,0.205,1.469,0.205c2.057,0,3.994-1.186,4.893-3.132c1.11-2.407,0.305-5.267-1.901-6.74   c-22.995-15.356-36.722-42.247-36.722-71.933c0-17.94,5.08-35.06,14.693-49.509c0.883-1.328,1.133-2.978,0.682-4.508   c-2.062-7.003-3.108-14.32-3.108-21.745c0-24.111,11.082-46.368,29.645-59.534C79.048,106.746,79.798,103.964,78.726,101.613z"/>
</g>
<path style="fill:#B0E046;" d="M146.596,397.758c-50.509,0-97.83,13.624-138.512,37.377v68.78h355.638  C313.378,439.313,234.844,397.758,146.596,397.758z"/>
<path style="fill:#36CC6B;" d="M336.131,427.918c-13.014,4.26-25.609,9.457-37.691,15.524c24.899,16.51,46.948,36.969,65.272,60.474  h140.204v-75.04H342.077C340,428.876,338.004,428.532,336.131,427.918z"/>
<path style="fill:#2DA555;" d="M503.916,377.858c-3.43-1.706-7.287-2.683-11.379-2.683c-2.991,0-5.862,0.517-8.533,1.461  c-0.495-22.199-18.631-40.043-40.947-40.043c-20.129,0-36.854,14.519-40.308,33.654c-5.922-5.829-14.042-9.427-23.009-9.427  c-17.362,0-31.564,13.489-32.72,30.558c-1.579-0.424-3.229-0.67-4.943-0.67c-10.539,0-19.084,8.544-19.084,19.085  c0,10.54,8.546,19.084,19.084,19.084h161.838V377.858z"/>
<path style="fill:#85C8EB;" d="M202.328,75.192h10.633c9.979,0,18.063-8.086,18.063-18.061c0-3.352-0.928-6.476-2.518-9.165h37.629  c9.977,0,18.061-8.087,18.061-18.062c0-9.977-8.084-18.063-18.061-18.063h-84.725c-9.975,0-18.061,8.086-18.061,18.063  c0,3.349,0.926,6.475,2.516,9.164h-37.627c-9.977,0-18.063,8.086-18.063,18.063c0,9.975,8.086,18.061,18.063,18.061h51.196"/>
<path style="fill:#FFA233;" d="M398.088,113.912c6.366,6.369,15.164,10.309,24.882,10.309c19.438,0,35.195-15.757,35.195-35.193  s-15.758-35.192-35.195-35.192c-19.436,0-35.191,15.756-35.191,35.192C387.779,98.745,391.718,107.544,398.088,113.912"/>
<g>
	<path style="fill:#231F20;" d="M422.97,132.305c-11.562,0-22.429-4.503-30.6-12.679c-8.174-8.17-12.676-19.038-12.676-30.599   c0-23.864,19.414-43.276,43.275-43.276c23.865,0,43.28,19.414,43.28,43.276C466.251,112.89,446.835,132.305,422.97,132.305z    M422.97,61.919c-14.947,0-27.107,12.161-27.107,27.108c0,7.241,2.82,14.048,7.941,19.167c5.12,5.122,11.927,7.942,19.166,7.942   c14.949,0,27.111-12.161,27.111-27.109C450.082,74.08,437.92,61.919,422.97,61.919z"/>
	<path style="fill:#231F20;" d="M503.916,97.112H481.04c-4.466,0-8.084-3.618-8.084-8.084s3.618-8.084,8.084-8.084h22.876   c4.466,0,8.084,3.618,8.084,8.084S508.382,97.112,503.916,97.112z"/>
	<path style="fill:#231F20;" d="M364.903,97.112h-22.876c-4.465,0-8.084-3.618-8.084-8.084s3.62-8.084,8.084-8.084h22.876   c4.466,0,8.084,3.618,8.084,8.084S369.369,97.112,364.903,97.112z"/>
	<path style="fill:#231F20;" d="M464.034,56.052c-2.068,0-4.138-0.79-5.716-2.367c-3.158-3.157-3.158-8.276-0.001-11.432   l16.175-16.177c3.158-3.158,8.277-3.157,11.433-0.001c3.158,3.157,3.158,8.276,0.001,11.432l-16.175,16.177   C468.172,55.263,466.102,56.052,464.034,56.052z"/>
	<path style="fill:#231F20;" d="M365.735,154.348c-2.068,0-4.138-0.789-5.717-2.367c-3.157-3.158-3.157-8.276,0-11.433   l16.177-16.177c3.158-3.156,8.276-3.156,11.433,0c3.157,3.158,3.157,8.276,0,11.433l-16.177,16.177   C369.873,153.559,367.804,154.348,365.735,154.348z"/>
	<path style="fill:#231F20;" d="M422.97,39.042c0,0,0,0-0.001,0c-4.465,0-8.083-3.62-8.083-8.085l0.002-22.874   c0-4.465,3.62-8.083,8.084-8.083c0,0,0,0,0.001,0c4.465,0,8.083,3.62,8.083,8.085l-0.002,22.874   C431.054,35.423,427.435,39.042,422.97,39.042z"/>
	<path style="fill:#231F20;" d="M422.97,178.056c-4.466,0-8.084-3.618-8.084-8.084v-22.876c0-4.466,3.618-8.084,8.084-8.084   s8.084,3.618,8.084,8.084v22.876C431.054,174.437,427.436,178.056,422.97,178.056z"/>
	<path style="fill:#231F20;" d="M381.912,56.052c-2.068,0-4.138-0.79-5.716-2.367l-16.177-16.176   c-3.158-3.157-3.158-8.276-0.001-11.432c3.158-3.158,8.277-3.157,11.432-0.001l16.177,16.176c3.158,3.157,3.158,8.276,0.001,11.432   C386.049,55.263,383.979,56.052,381.912,56.052z"/>
	<path style="fill:#231F20;" d="M480.209,154.349c-2.07,0-4.138-0.789-5.717-2.368l-16.175-16.176   c-3.157-3.157-3.157-8.276,0.001-11.432c3.156-3.157,8.275-3.156,11.433,0.001l16.175,16.176c3.157,3.157,3.157,8.276-0.001,11.432   C484.347,153.56,482.277,154.349,480.209,154.349z"/>
	<path style="fill:#231F20;" d="M212.962,83.276h-10.633c-4.466,0-8.084-3.618-8.084-8.084s3.618-8.084,8.084-8.084h10.633   c5.502,0,9.979-4.475,9.979-9.977c0-1.788-0.469-3.487-1.394-5.053c-1.477-2.499-1.5-5.598-0.063-8.119   c1.439-2.521,4.119-4.078,7.022-4.078h37.629c5.502,0,9.977-4.475,9.977-9.978s-4.475-9.979-9.977-9.979h-84.725   c-5.502,0-9.977,4.476-9.977,9.979c0,1.789,0.468,3.489,1.392,5.052c1.477,2.499,1.5,5.598,0.063,8.119   c-1.439,2.521-4.119,4.078-7.022,4.078h-37.627c-5.502,0-9.979,4.476-9.979,9.979c0,5.502,4.477,9.977,9.979,9.977h51.196   c4.466,0,8.084,3.618,8.084,8.084s-3.618,8.084-8.084,8.084h-51.196c-14.418,0-26.148-11.729-26.148-26.145   c0-14.418,11.73-26.148,26.148-26.148h27.05c-0.015-0.359-0.022-0.72-0.022-1.08c0-14.418,11.729-26.148,26.145-26.148h84.725   c14.417,0,26.145,11.73,26.145,26.148c0,14.417-11.729,26.146-26.145,26.146h-27.051c0.016,0.36,0.023,0.72,0.023,1.081   C239.109,71.547,227.38,83.276,212.962,83.276z"/>
	<path style="fill:#231F20;" d="M507.517,370.62c-5.172-2.574-10.798-3.756-16.527-3.495c-2.006-9.295-6.683-17.814-13.619-24.611   c-9.219-9.032-21.405-14.006-34.314-14.006c-19.607,0-36.86,11.549-44.655,28.717c-5.707-2.936-12.07-4.49-18.662-4.49   c-18.609,0-34.57,12.625-39.392,29.942c-14.179,0.895-25.44,12.714-25.44,27.114c0,5.718,1.78,11.026,4.808,15.407   c-7.038,2.718-13.97,5.717-20.741,8.977c-6.775-4.343-13.726-8.389-20.831-12.127v-86.581c43.103-4.439,76.939-43.966,76.939-91.93   c0-19.156-5.298-37.373-15.359-52.938c2.052-7.377,3.091-15.036,3.091-22.823c0-43.518-32.638-78.923-72.756-78.923   s-72.756,35.406-72.756,78.923c0,7.782,1.039,15.441,3.092,22.822c-10.062,15.566-15.36,33.78-15.36,52.939   c0,47.964,33.836,87.492,76.939,91.93v18.353l-18.012-9.438c-3.952-2.071-8.84-0.548-10.914,3.408   c-2.072,3.955-0.546,8.841,3.408,10.914l25.517,13.371v42.122c-36.318-16.261-75.067-24.525-115.381-24.525   c-17.502,0-34.897,1.624-51.962,4.802v-18.49l18.365-11.733c3.762-2.404,4.865-7.402,2.46-11.165   c-2.403-3.761-7.402-4.861-11.165-2.46l-9.66,6.172v-21.33c43.103-4.439,76.939-43.966,76.939-91.93   c0-19.156-5.298-37.373-15.359-52.938c2.052-7.377,3.091-15.036,3.091-22.823c0-43.518-32.638-78.923-72.756-78.923   s-72.756,35.406-72.756,78.923c0,7.782,1.039,15.441,3.092,22.822c-10.062,15.566-15.36,33.78-15.36,52.939   c0,47.964,33.836,87.492,76.939,91.93v62.511c-26.066,6.446-51.166,16.575-74.457,30.174C1.526,429.604,0,432.261,0,435.134v68.782   C0,508.382,3.618,512,8.084,512h355.628h0.011h140.193c4.466,0,8.084-3.618,8.084-8.084v-75.04v-51.018   C512,374.79,510.263,371.986,507.517,370.62z M17.695,243.537c0-17.178,5.063-33.405,14.643-46.929   c1.485-2.097,1.885-4.775,1.078-7.213c-2.292-6.92-3.454-14.194-3.454-21.618c0-34.604,25.385-62.755,56.587-62.755   s56.587,28.151,56.587,62.755c0,7.431-1.162,14.704-3.452,21.616c-0.808,2.44-0.409,5.119,1.077,7.215   c9.58,13.524,14.643,29.752,14.643,46.929c0,38.984-26.602,71.204-60.771,75.648v-78.174c0-4.466-3.618-8.084-8.084-8.084   s-8.084,3.618-8.084,8.084v28.544l-10.347-6.61c-3.761-2.403-8.761-1.301-11.165,2.46c-2.404,3.763-1.302,8.761,2.46,11.165   l19.052,12.172v30.443C44.297,314.741,17.695,282.522,17.695,243.537z M342.077,398.791c0.926,0,1.859,0.129,2.851,0.395   c2.331,0.626,4.827,0.174,6.795-1.232c1.966-1.407,3.2-3.618,3.363-6.031c0.875-12.909,11.704-23.02,24.655-23.02   c6.527,0,12.684,2.523,17.337,7.104c2.135,2.102,5.261,2.852,8.118,1.945c2.856-0.907,4.977-3.32,5.509-6.269   c2.823-15.649,16.429-27.006,32.352-27.006c17.727,0,32.47,14.418,32.865,32.139c0.058,2.591,1.355,4.998,3.487,6.472   c2.132,1.471,4.84,1.836,7.287,0.971c2.93-1.033,6.127-1.269,9.136-0.688v37.22H342.077c-0.334,0-0.663-0.021-0.99-0.051   c-0.144-0.013-0.288-0.033-0.431-0.052c-0.167-0.022-0.334-0.047-0.499-0.077c-0.188-0.033-0.375-0.07-0.562-0.113   c-0.1-0.023-0.198-0.051-0.297-0.077c-0.218-0.057-0.434-0.115-0.65-0.185c-0.002-0.001-0.004-0.001-0.005-0.001   c-4.388-1.447-7.567-5.578-7.567-10.444C331.078,403.725,336.012,398.791,342.077,398.791z M201.206,243.537   c0-17.178,5.063-33.405,14.643-46.929c1.485-2.097,1.885-4.775,1.078-7.213c-2.292-6.92-3.454-14.194-3.454-21.618   c0-34.604,25.385-62.755,56.587-62.755s56.587,28.151,56.587,62.755c0,7.431-1.162,14.704-3.452,21.616   c-0.808,2.44-0.409,5.119,1.077,7.215c9.58,13.524,14.643,29.752,14.643,46.929c0,38.984-26.602,71.204-60.771,75.648V289.56   l20.424-13.049c3.762-2.404,4.865-7.403,2.46-11.165c-2.403-3.761-7.402-4.861-11.165-2.46l-11.719,7.487v-33.293   c0-4.466-3.618-8.084-8.084-8.084c-4.466,0-8.084,3.618-8.084,8.084v82.104C227.809,314.741,201.206,282.522,201.206,243.537z    M16.168,439.823c19.647-11.015,40.597-19.448,62.297-25.161v22.363H63.556c-4.466,0-8.084,3.618-8.084,8.084   s3.618,8.084,8.084,8.084h45.09c4.466,0,8.084-3.618,8.084-8.084s-3.618-8.084-8.084-8.084H94.634V410.94   c17.038-3.372,34.443-5.097,51.962-5.097c42.026,0,82.478,9.673,118.811,27.722c0.666,0.471,1.404,0.845,2.199,1.098   c8.699,4.424,17.162,9.319,25.341,14.694c0.319,0.296,0.655,0.578,1.026,0.824c19.453,12.9,37.055,28.215,52.503,45.652H16.168   V439.823z M495.832,495.832H367.626c-0.258-0.32-0.527-0.628-0.786-0.947c-1.309-1.617-2.638-3.216-3.982-4.804   c-0.619-0.732-1.235-1.465-1.862-2.19c-1.17-1.352-2.358-2.685-3.554-4.015c-0.821-0.915-1.634-1.839-2.466-2.743   c-0.704-0.763-1.426-1.508-2.137-2.263c-6.575-6.991-13.49-13.633-20.727-19.914c-0.074-0.065-0.148-0.129-0.222-0.193   c-1.932-1.673-3.886-3.32-5.863-4.94c-0.083-0.069-0.167-0.136-0.251-0.205c-3.686-3.015-7.426-5.966-11.265-8.797   c7.157-3.138,14.471-5.97,21.867-8.466c1.839,0.395,3.745,0.607,5.699,0.607h153.754V495.832z"/>
</g>
<g style="opacity:0.1;">
	<rect x="16.33" y="427.137" style="fill:#231F20;" width="17.246" height="75.183"/>
</g>
<g>
</g>
<g>
</g>
<g>
</g>
<g>
</g>
<g>
</g>
<g>
</g>
<g>
</g>
<g>
</g>
<g>
</g>
<g>
</g>
<g>
</g>
<g>
</g>
<g>
</g>
<g>
</g>
<g>
</g>
</svg>
