<?xml version="1.0" encoding="utf-8"?>
<!-- Generator: Adobe Illustrator 22.0.1, SVG Export Plug-In . SVG Version: 6.00 Build 0)  -->
<svg version="1.1" xmlns="http://www.w3.org/2000/svg" xmlns:xlink="http://www.w3.org/1999/xlink" x="0px" y="0px"
	 viewBox="0 0 512 512" style="enable-background:new 0 0 512 512;" xml:space="preserve">
<style type="text/css">
	.st0{fill:#4B71B4;}
	.st1{fill:#80B4E8;}
	.st2{fill:#594144;}
	.st3{fill:#B8E876;}
	.st4{fill:#E09122;}
	.st5{fill:#FBF355;}
	.st6{fill:#EEC82F;}
	.st7{fill:#CEA628;}
	.st8{fill:#9BC9EF;}
	.st9{fill:#9DD055;}
	.st10{fill:#5686C5;}
	.st11{fill:#3B5880;}
	.st12{fill:#C2E5FB;}
	.st13{fill:#446697;}
	.st14{fill:#D1F1A0;}
	.st15{fill:#ABD170;}
	.st16{fill:#9DBD6A;}
	.st17{fill:#649D53;}
	.st18{fill:#72B35D;}
	.st19{fill:#ABD68D;}
	.st20{fill:#7FB358;}
	.st21{fill:#920C50;}
	.st22{fill:#C60053;}
	.st23{fill:#530730;}
	.st24{fill:#600332;}
	.st25{fill:#D5AC2A;}
	.st26{fill:#EFD776;}
	.st27{fill:#A7C76D;}
	.st28{fill:#A43749;}
	.st29{fill:#DC4355;}
	.st30{fill:#E18696;}
	.st31{fill:#77A255;}
	.st32{fill:#628547;}
	.st33{fill:#6E994D;}
	.st34{fill:none;stroke:#54743C;stroke-width:8;stroke-linecap:round;stroke-miterlimit:10;}
	.st35{fill:#9BCF75;}
	.st36{fill:#CA8F80;}
	.st37{fill:#E6B8AB;}
	.st38{fill:#E2A18B;}
	.st39{fill:#8E3F2B;}
	.st40{fill:#D89988;}
	.st41{fill:#CFCFCF;}
	.st42{fill:#A64B2D;}
	.st43{fill:#FFFFFF;}
	.st44{fill:#CA801F;}
	.st45{fill:#719C50;}
	.st46{fill:#85B7E5;}
	.st47{fill:#4F7BA9;}
	.st48{fill:#674C50;}
	.st49{fill:#BAD7ED;}
	.st50{fill:#63494D;}
	.st51{fill:#503D3F;}
	.st52{fill:#638547;}
	.st53{fill:#56713E;}
	.st54{fill:#BB5135;}
	.st55{fill:#93C4EC;}
	.st56{fill:#CA8121;}
	.st57{fill:#FDFCFC;}
	.st58{fill:#A83A4F;}
	.st59{fill:#BD5E44;}
	.st60{fill:#688C4A;}
	.st61{fill:#7DA55A;}
	.st62{fill:#90BA51;}
	.st63{fill:none;}
	.st64{fill:#ABC287;}
	.st65{fill:#BDD993;}
	.st66{fill:none;stroke:#534046;stroke-width:15;stroke-linecap:round;stroke-linejoin:round;stroke-miterlimit:10;}
	.st67{fill:#413133;}
	.st68{fill:#34292B;}
	.st69{fill:#644B50;}
	.st70{fill:#CDACB7;}
	.st71{fill:#A83A4D;}
	.st72{fill:#413335;}
	.st73{fill:#DC6579;}
	.st74{fill:#4C393C;}
	.st75{fill:#527FAE;}
	.st76{fill:#92C2EA;}
	.st77{fill:#5B8C4A;}
	.st78{fill:#729C51;}
	.st79{fill:#AADB5E;}
	.st80{fill:#D66C53;}
	.st81{fill:#A65340;}
	.st82{fill:#B8594A;}
	.st83{fill:#79A754;}
	.st84{fill:#4E3B3E;}
	.st85{fill:#5E4649;}
	.st86{fill:#604A50;}
	.st87{fill:#685258;}
	.st88{fill:#765E66;}
	.st89{fill:#FCF69A;}
	.st90{fill:#D3CC84;}
	.st91{fill:#E6A572;}
	.st92{fill:#74A151;}
	.st93{fill:#6F994F;}
	.st94{fill:#CC6D7D;}
	.st95{fill:#AD6576;}
	.st96{fill:#95422D;}
	.st97{fill:#BE6850;}
	.st98{fill:#3B2F32;}
	.st99{fill:none;stroke:#46383B;stroke-width:15;stroke-linecap:round;stroke-miterlimit:10;}
	.st100{fill:none;stroke:#3B2F32;stroke-width:15;stroke-linecap:round;stroke-miterlimit:10;}
	.st101{fill:#D6CF77;}
	.st102{fill:#F5EF82;}
	.st103{fill:#4A383B;}
	.st104{fill:#CACACA;}
	.st105{fill:#48373A;}
	.st106{fill:#7AA8D2;}
	.st107{fill:#6E9150;}
	.st108{fill:#587441;}
	.st109{fill:#D76E51;}
	.st110{fill:#CCC475;}
	.st111{fill:#DDD57E;}
	.st112{fill:#F8F19C;}
	.st113{fill:#FBF58A;}
	.st114{fill:#C67F20;}
	.st115{fill:#AB6B1C;}
	.st116{fill:#C98020;}
	.st117{fill:#D99A41;}
	.st118{fill:#DBA35B;}
	.st119{fill:#9B5F1B;}
	.st120{fill:#97CF6D;}
	.st121{fill:#5380B1;}
	.st122{fill:#96D16A;}
	.st123{fill:#92BD50;}
	.st124{fill:#7EB058;}
	.st125{fill:#709A50;}
	.st126{fill:#5A8A4A;}
	.st127{fill:#D9D9D9;}
	.st128{fill:#75A3CD;}
	.st129{fill:#6E974F;}
	.st130{fill:#CA6D7D;}
	.st131{fill:#AB6576;}
	.st132{fill:#93422D;}
	.st133{fill:#A44B2D;}
	.st134{fill:#BC6850;}
	.st135{fill:#DFB52B;}
	.st136{fill:#4C3A3C;}
	.st137{fill:#473538;}
	.st138{fill:#382B2E;}
	.st139{fill:none;stroke:#FFFFFF;stroke-width:8;stroke-linecap:round;stroke-miterlimit:10;}
	.st140{fill:#90C0E8;}
	.st141{fill:none;stroke:#E09122;stroke-width:12;stroke-linecap:round;stroke-miterlimit:10;}
	.st142{fill:#DCAE2B;}
	.st143{fill:#F0D05A;}
	.st144{fill:#729E51;}
	.st145{fill:#E4BA36;}
	.st146{fill:#F8F283;}
	.st147{fill:#E4B6A9;}
	.st148{fill:#D78E30;}
	.st149{fill:#598A49;}
	.st150{fill:#B65339;}
	.st151{fill:#BA751F;}
	.st152{fill:#466A9F;}
	.st153{fill:#8BB34D;}
	.st154{fill:#9BCE54;}
	.st155{fill:#7F9F49;}
	.st156{fill:#D37F6D;}
	.st157{fill:#BB5E44;}
	.st158{fill:#93BB55;}
	.st159{fill:#B3E665;}
	.st160{fill:none;stroke:#4C393C;stroke-width:8;stroke-miterlimit:10;}
	.st161{fill:#97432D;}
	.st162{fill:#DAB12A;}
	.st163{fill:#5E914C;}
	.st164{fill:#5381B3;}
	.st165{fill:#6A8F4C;}
	.st166{fill:#628047;}
	.st167{fill:#E29D37;}
	.st168{fill:#6E555B;}
	.st169{fill:#91CA67;}
	.st170{fill:#476BA1;}
	.st171{fill:#6699D9;}
	.st172{fill:#503C3E;}
	.st173{fill:#413235;}
	.st174{fill:#CC916A;}
	.st175{fill:#BA8363;}
	.st176{fill:#D09571;}
	.st177{fill:#C98F68;}
	.st178{fill:#AA3B4D;}
	.st179{fill:#DA6075;}
	.st180{fill:#92452D;}
	.st181{fill:#A24B2D;}
	.st182{fill:#B76252;}
	.st183{fill:#87BD60;}
	.st184{fill:#78A7D2;}
	.st185{fill:#F9F38F;}
	.st186{fill:#E0D650;}
	.st187{fill:#AFE086;}
	.st188{fill:#9FD476;}
	.st189{fill:#9DD176;}
	.st190{fill:#8FC468;}
	.st191{fill:#7EAE58;}
	.st192{fill:#6F9850;}
	.st193{fill:#59884A;}
	.st194{fill:#638347;}
	.st195{fill:#B95135;}
	.st196{fill:#E5AB62;}
	.st197{fill:#733228;}
	.st198{fill:#803728;}
	.st199{fill:#6D974D;}
	.st200{fill:#99CD75;}
	.st201{fill:#93412C;}
	.st202{fill:#93C2EA;}
	.st203{fill:#CD926B;}
	.st204{fill:#E6AF8A;}
	.st205{fill:#E5DB4E;}
	.st206{fill:#FBF375;}
	.st207{fill:#779E54;}
	.st208{fill:#D3966D;}
	.st209{fill:#DA4355;}
	.st210{fill:#A83B4D;}
	.st211{fill:none;stroke:#594144;stroke-width:8;stroke-linecap:round;stroke-miterlimit:10;}
	.st212{fill:#E5A855;}
	.st213{fill:#EAC291;}
	.st214{fill:#96C252;}
	.st215{fill:#695055;}
	.st216{fill:#DC9C42;}
	.st217{fill:#8E5C1B;}
	.st218{fill:#F4EB6A;}
	.st219{fill:#CBC049;}
	.st220{fill:none;stroke:#B8E876;stroke-width:15;stroke-linecap:round;stroke-miterlimit:10;}
	.st221{fill:#A36A1C;}
	.st222{fill:#ECC94A;}
	.st223{fill:#91BEDA;}
	.st224{fill:#3D2F32;}
	.st225{fill:#A6394C;}
	.st226{fill:#33292B;}
	.st227{fill:#4F3D42;}
	.st228{fill:#638147;}
	.st229{fill:#CD8321;}
	.st230{fill:#D3CA4A;}
	.st231{fill:#E2A550;}
	.st232{fill:#B75135;}
	.st233{fill:#D4CD77;}
	.st234{fill:#F3EC80;}
	.st235{fill:#46383B;}
	.st236{fill:#82AA61;}
	.st237{fill:#8EBF69;}
	.st238{fill:#3C2E31;}
	.st239{fill:#C49F27;}
	.st240{fill:#D2BF7C;}
	.st241{fill:#F6E18D;}
	.st242{fill:#D6D6D6;}
	.st243{fill:#B5D7F2;}
	.st244{fill:#F1D467;}
	.st245{fill:#739FBD;}
	.st246{fill:#D0946C;}
	.st247{fill:#BE8767;}
	.st248{fill:#D0A829;}
	.st249{fill:#F6DF86;}
	.st250{fill:#EABA8D;}
	.st251{fill:#F0D1B8;}
	.st252{fill:#A5D0F1;}
	.st253{fill:#E3A13F;}
	.st254{fill:#F0FAFF;}
	.st255{fill:#B4D3E3;}
	.st256{fill:#80A5C3;}
	.st257{fill:#87AFD5;}
	.st258{fill:#B1D1E7;}
	.st259{fill:#AED66F;}
	.st260{fill:#91AA61;}
	.st261{fill:#A8384B;}
	.st262{fill:#CD8120;}
	.st263{fill:#E6AD56;}
	.st264{fill:none;stroke:#E6AD56;stroke-width:8;stroke-linecap:round;stroke-miterlimit:10;}
	.st265{fill:#9EBD68;}
	.st266{fill:#AAD16E;}
	.st267{fill:#86656B;}
	.st268{fill:#6D954D;}
	.st269{fill:#98CB75;}
	.st270{fill:#75A251;}
	.st271{fill:#91BD4F;}
	.st272{fill:none;stroke:#B8E078;stroke-width:8;stroke-linecap:round;stroke-miterlimit:10;}
	.st273{fill:none;stroke:#B8E078;stroke-width:8;stroke-linecap:round;stroke-linejoin:round;stroke-miterlimit:10;}
	.st274{fill:#8FBA4E;}
	.st275{fill:#B3E860;}
	.st276{fill:#E7A748;}
	.st277{fill:none;stroke:#B6E676;stroke-width:15;stroke-linecap:round;stroke-miterlimit:10;}
	.st278{fill:#639B53;}
	.st279{fill:#476B9F;}
	.st280{fill:#82B1DE;}
	.st281{fill:#A6533F;}
	.st282{fill:#C28A69;}
	.st283{fill:#64494E;}
	.st284{fill:#77565C;}
	.st285{fill:#4F3C40;}
	.st286{fill:#ECCCB1;}
	.st287{fill:#BF6F5C;}
	.st288{fill:none;stroke:#D4F1A7;stroke-width:10;stroke-linecap:round;stroke-miterlimit:10;}
	.st289{fill:none;stroke:#B8E876;stroke-width:10;stroke-linecap:round;stroke-miterlimit:10;}
	.st290{fill:#47688F;}
	.st291{fill:#3F5B78;}
	.st292{fill:#354E6C;}
	.st293{fill:#DAB12B;}
	.st294{fill:#C8A028;}
	.st295{fill:#F0D15C;}
	.st296{fill:#F8F28B;}
	.st297{fill:#F7F18D;}
	.st298{fill:#DED450;}
	.st299{fill:#F9F155;}
	.st300{fill:#A2CFF4;}
	.st301{fill:none;stroke:#594144;stroke-width:10;stroke-linecap:round;stroke-miterlimit:10;}
	.st302{fill:#F5F0AB;}
	.st303{fill:#496DA1;}
	.st304{fill:#5A85C7;}
	.st305{fill:#D7D7D7;}
	.st306{fill:#ADD3E6;}
	.st307{fill:#98B8C3;}
	.st308{fill:#CDCECF;}
	.st309{fill:#BF4F69;}
	.st310{fill:#A83448;}
	.st311{fill:#A4DAF7;}
	.st312{fill:#81A861;}
	.st313{fill:#82A549;}
	.st314{fill:#B6E676;}
	.st315{fill:#8CBD69;}
	.st316{fill:#ECC62F;}
	.st317{fill:#F4EA80;}
	.st318{fill:#D6AD2B;}
	.st319{fill:#6F9151;}
	.st320{fill:#46699C;}
	.st321{fill:#4A373A;}
	.st322{fill:#89B04C;}
	.st323{fill:#99CC53;}
	.st324{fill:#B1E465;}
	.st325{fill:#E19E3B;}
	.st326{fill:#C05970;}
	.st327{fill:#D95F74;}
	.st328{fill:#74A8DE;}
	.st329{fill:#C47C1E;}
	.st330{fill:#719A51;}
	.st331{fill:#A8D95E;}
	.st332{fill:#D46C53;}
	.st333{fill:#A45340;}
	.st334{fill:#B6594A;}
	.st335{fill:#79A554;}
	.st336{fill:#B6DAF7;}
	.st337{fill:#739F51;}
	.st338{fill:#DDB32B;}
	.st339{fill:#DE8F22;}
	.st340{fill:none;stroke:#46383B;stroke-width:8;stroke-linecap:round;stroke-miterlimit:10;}
	.st341{fill:none;stroke:#3B2F32;stroke-width:8;stroke-linecap:round;stroke-miterlimit:10;}
	.st342{fill:#C8C8C8;}
	.st343{fill:#7F9D49;}
	.st344{fill:#BA5E44;}
	.st345{fill:#92B955;}
	.st346{fill:#D17F6D;}
	.st347{fill:#5D8F4C;}
	.st348{fill:#B75334;}
	.st349{fill:#CA6D57;}
	.st350{fill:#A4574D;}
	.st351{fill:#7FB1E6;}
	.st352{fill:#77A3CD;}
	.st353{fill:#90BA4F;}
	.st354{fill:#5C8F4B;}
	.st355{fill:#ACDE5D;}
	.st356{fill:#6FAC5A;}
	.st357{fill:none;stroke:#9DD055;stroke-width:10;stroke-linecap:round;stroke-miterlimit:10;}
	.st358{fill:#AD5643;}
	.st359{fill:#B96052;}
	.st360{fill:#CB8D84;}
	.st361{fill:#CC6C56;}
	.st362{fill:#DE9A8E;}
	.st363{fill:#D37B6A;}
	.st364{fill:#A87758;}
	.st365{fill:#372A2C;}
	.st366{fill:#B8815C;}
	.st367{fill:#433335;}
	.st368{fill:#2C2325;}
	.st369{fill:#95402B;}
	.st370{fill:#A85441;}
	.st371{fill:#D2C74B;}
	.st372{fill:#B25945;}
	.st373{fill:none;stroke:#594144;stroke-width:15;stroke-linecap:round;stroke-miterlimit:10;}
	.st374{fill:none;stroke:#594144;stroke-width:12;stroke-linecap:round;stroke-miterlimit:10;}
	.st375{fill:#8F473B;}
	.st376{fill:#453538;}
	.st377{fill:#517DAB;}
	.st378{fill:#75A050;}
	.st379{fill:#A5384D;}
	.st380{fill:#CC6075;}
	.st381{fill:#F26B7F;}
	.st382{fill:#C67189;}
	.st383{fill:#B26980;}
	.st384{fill:#D87990;}
	.st385{fill:#F2869B;}
	.st386{fill:#EF8499;}
	.st387{fill:#649CD7;}
	.st388{fill:#639CDB;}
	.st389{fill:#C8ED8D;}
	.st390{fill:#A9DB83;}
	.st391{fill:#9BCF76;}
	.st392{fill:#7EAC58;}
	.st393{fill:#8CC463;}
	.st394{fill:#7FAC5B;}
	.st395{fill:#769C55;}
	.st396{fill:#6A894D;}
	.st397{fill:#769B56;}
	.st398{fill:#9BCC75;}
	.st399{fill:#AF5641;}
	.st400{fill:#F4D576;}
	.st401{fill:#76A055;}
	.st402{fill:#628347;}
	.st403{fill:#4F7B9F;}
	.st404{fill:#466D86;}
	.st405{fill:#4D789C;}
</style>
<g id="BULINE">
	<circle id="XMLID_1924_" class="st4" cx="256" cy="256" r="256"/>
</g>
<g id="Icons">
	<g id="XMLID_1932_">
		<circle id="XMLID_2307_" class="st196" cx="259.8" cy="263.2" r="179.8"/>
		<path id="XMLID_2708_" class="st197" d="M512,256c0,44.4-11.3,86.2-31.3,122.7c-6.1,11.2-13.1,21.9-20.8,32
			c-15,19.8-32.8,37.2-52.8,51.9c-0.8,0.6-1.5,1.1-2.3,1.7c-42,30-93.3,47.7-148.9,47.7c-56.4,0-108.6-18.3-150.9-49.2
			c-11.4-8.3-22.1-17.6-32-27.7c-13.5-13.8-25.5-29.1-35.6-45.6C30,377.1,23.4,364.1,18,350.4C7.3,323.5,1,294.4,0.1,263.9
			c12.5-2,41.3-5.2,79.8-0.3c6.9,0.9,14.2,2,21.7,3.5c6.4,1.2,13,2.7,19.8,4.4c15.5,3.9,31.9,9.3,48.9,16.4
			c13.5,5.7,27.5,12.4,41.6,20.6c0,0,0,0,0,0c2.1,1.2,4.2,2.4,6.4,3.7c2.6,1.6,5.2,3.2,7.9,4.9c3.8,2.4,7.6,4.9,11.4,7.5
			c3.5,2.4,7.2,4.6,11.2,6.3c0.2,0.1,0.3,0.1,0.5,0.2h0c12.7,5.7,39.6,15.1,69.5,9.4c8.1-1.5,16.4-4.2,24.7-8.3
			c5-2.5,9.6-5.6,13.8-9.1c0.4-0.3,0.8-0.7,1.2-1c2.8-2.3,6.5-5.4,11-8.9c5-3.9,11-8.5,17.6-13.3c14.9-10.9,33.3-23.2,52.6-33.7
			c24.5-13.3,50.4-23.4,72.1-23.1C511.9,247.3,512,251.7,512,256z"/>
		<path id="XMLID_2672_" class="st198" d="M480.7,378.7c-6.1,11.2-13.1,21.9-20.8,32c-15,19.8-32.8,37.2-52.8,51.9
			c-0.8,0.6-1.5,1.1-2.3,1.7c-40.1,10.6-82.2,16.2-125.5,16.2c-41.9,0-82.5-5.2-121.3-15.1c-27.9-7.1-54.8-16.6-80.5-28.2h0
			c-1-0.4-1.9-0.9-2.9-1.4c-0.5-0.2-1-0.5-1.5-0.7c-13.5-13.8-25.5-29.1-35.6-45.6C30,377.1,23.4,364.1,18,350.4
			c0.9,0,1.8-0.1,2.6-0.1c17.6,0,33.4,7.6,44.4,19.7c2,2.2,3.8,4.6,5.5,7.1c2.1,3.1,3.8,6.3,5.3,9.8c3.1-2.4,6.4-4.6,10-6.4
			c5.7-2.9,12-5,18.6-5.9c0.4-0.1,0.8-0.1,1.2-0.1c0,0,0,0,0,0c2.2-0.3,4.4-0.4,6.6-0.4c0.2,0,0.5,0,0.8,0c1.8,0,3.5,0.1,5.2,0.2
			c11.8,1,22.6,5.5,31.5,12.3c5.1-6.8,11.3-12.8,18.4-17.7c0.4-0.3,0.9-0.6,1.3-0.9c0,0,0,0,0,0c12.5-8.3,27.5-13.1,43.7-13.1
			c6.8,0,13.5,0.9,19.9,2.5c4.1,1.1,8.1,2.4,12,4.2c9.7,4.3,18.4,10.4,25.5,18c11.7-15.2,28.2-26.4,47.3-31.6
			c1.5-0.4,3.1-0.8,4.7-1.1c4.9-1,9.9-1.7,15-1.9c1.2,0,2.4-0.1,3.6-0.1c16.4,0,31.8,4.4,45,12.2c6.5,3.8,12.6,8.5,17.9,13.8
			c2.9,2.9,5.6,6,8.1,9.2c2.1,2.8,4.1,5.7,5.8,8.7c10.5-9.2,24.3-14.8,39.5-14.8C465.6,373.9,473.5,375.6,480.7,378.7z"/>
		<g id="XMLID_2176_">
			<g id="XMLID_2300_">
				<path id="XMLID_2304_" class="st124" d="M358.5,132.3c3.1,18.1,0.2,35.3-7,48.3c-6.5,11.8-16.5,20-28.7,22.1
					c-25.5,4.3-51-20.2-56.8-54.7c-4.5-26.3,16.8-63.8,27.1-80.2c0,0,0,0,0,0c2.9-4.5,9-5.6,13.3-2.2
					C321.6,77.5,354.1,106,358.5,132.3z"/>
				<path id="XMLID_2303_" class="st199" d="M351.5,180.6c-6.5,11.8-16.5,20-28.7,22.1c-25.5,4.3-51-20.2-56.8-54.7
					c-4.5-26.3,16.8-63.8,27.1-80.2C292.8,69.7,267.9,191.6,351.5,180.6z"/>
				
					<ellipse id="XMLID_2302_" transform="matrix(0.7934 -0.6087 0.6087 0.7934 11.0544 211.6212)" class="st200" cx="317.3" cy="89.5" rx="9.1" ry="14.4"/>
				
					<ellipse id="XMLID_2301_" transform="matrix(0.7934 -0.6087 0.6087 0.7934 2.3657 225.5014)" class="st200" cx="333.4" cy="109.3" rx="4.6" ry="7.2"/>
			</g>
			<path id="XMLID_2299_" class="st124" d="M421.7,253.3c-12.2,13.7-27.5,22.2-42.1,24.7c-13.3,2.3-25.9-0.4-35.2-8.6
				c-19.3-17.2-16.1-52.4,7.3-78.6c17.8-19.9,60.3-26.7,79.6-28.9c0,0,0,0,0,0c5.3-0.6,10,3.6,10,9
				C441.5,190.3,439.5,233.4,421.7,253.3z"/>
			<path id="XMLID_2298_" class="st199" d="M379.7,278c-13.3,2.3-25.9-0.4-35.2-8.6c-19.3-17.2-16.1-52.4,7.3-78.6
				c17.8-19.9,60.3-26.7,79.6-28.9C429.6,162.9,318.9,219.5,379.7,278z"/>
			<path id="XMLID_2296_" class="st34" d="M288.9,428c45.7-41.4,32.7-235.8,32.7-235.8"/>
			
				<ellipse id="XMLID_2295_" transform="matrix(0.2399 -0.9708 0.9708 0.2399 137.6912 564.5973)" class="st200" cx="429.4" cy="194.4" rx="14.4" ry="9.1"/>
			
				<ellipse id="XMLID_2294_" transform="matrix(0.2399 -0.9708 0.9708 0.2399 109.4347 578.3097)" class="st200" cx="424" cy="219.3" rx="7.2" ry="4.6"/>
			<g id="XMLID_2284_">
				<path id="XMLID_2292_" class="st124" d="M280.2,244.2c12.7,13.2,19.9,29.2,21.3,43.9c1.2,13.4-2.4,25.8-11.3,34.4
					c-18.7,17.9-53.5,11.9-77.7-13.4c-18.4-19.3-21.9-62.2-22.5-81.6c0,0,0,0,0,0c-0.2-5.4,4.4-9.7,9.7-9.3
					C219,219.6,261.8,224.9,280.2,244.2z"/>
				<path id="XMLID_2291_" class="st199" d="M301.5,288.1c1.2,13.4-2.4,25.8-11.3,34.4c-18.7,17.9-53.5,11.9-77.7-13.4
					c-18.4-19.3-21.9-62.2-22.5-81.6C190.7,229.3,238.5,344.1,301.5,288.1z"/>
				
					<ellipse id="XMLID_2289_" transform="matrix(0.3155 -0.9489 0.9489 0.3155 -68.1008 369.5048)" class="st200" cx="222.1" cy="232" rx="9.1" ry="14.4"/>
				
					<ellipse id="XMLID_2287_" transform="matrix(0.3155 -0.9489 0.9489 0.3155 -58.3382 397.6655)" class="st200" cx="246.5" cy="239.3" rx="4.6" ry="7.2"/>
			</g>
			<line id="XMLID_2281_" class="st34" x1="287.9" y1="308.4" x2="317.3" y2="336"/>
			<line id="XMLID_2280_" class="st34" x1="323.3" y1="284.4" x2="346.2" y2="263.2"/>
		</g>
		<g id="XMLID_2171_">
			<path id="XMLID_2175_" class="st199" d="M84.7,172.7c-0.5,0.2-1.1,0.4-1.7,0.6c-13.7,4.4-31.3-33.3-19.6-56.5
				c11.7-23.2,47.8-34.8,53.6-21.7c0.5,1.1,0.9,2.1,1.2,3.1c3.7,11.7-4.9,16.1-15.8,37.5C90.9,158.3,108.9,164.5,84.7,172.7z"/>
			<path id="XMLID_2174_" class="st124" d="M84.7,172.7c-7.9-11.9-12.5-32.7-4.9-47.6c7.6-15,25.3-25.1,38.4-26.9
				c2.5,8-0.7,12.5-6.4,21.4c-2.7,4.1-5.9,9.2-9.3,16c-1.7,3.3-2.7,6.2-3.3,8.9C95.2,160.1,105.4,165.6,84.7,172.7z"/>
			<path id="XMLID_2172_" class="st200" d="M102.4,135.6c-1.7,3.3-2.7,6.2-3.3,8.9c-3.8-4.5-4.7-11-1.9-16.6
				c2.8-5.6,8.7-8.7,14.6-8.3C109.1,123.7,105.8,128.8,102.4,135.6z"/>
		</g>
		<g id="XMLID_2167_">
			<path id="XMLID_2170_" class="st199" d="M169.9,293.4c-0.1,0.6-0.2,1.2-0.2,1.8c-2.1,14.2-43.7,13.6-59.3-7.1
				c-15.7-20.7-10.4-58.2,4-57.7c1.2,0,2.3,0.1,3.3,0.3c12.1,1.8,12.3,11.5,26.8,30.6C159.7,281.4,173.1,268,169.9,293.4z"/>
			<path id="XMLID_2169_" class="st124" d="M169.9,293.4c-14.1,1.9-34.9-3.1-45-16.4c-10.1-13.4-11.5-33.7-7.4-46.3
				c8.3,1.2,11,6.1,16.5,15.2c2.6,4.2,5.7,9.3,10.3,15.4c2.2,2.9,4.4,5.2,6.5,6.9C163.2,278.3,172.6,271.6,169.9,293.4z"/>
			<path id="XMLID_2168_" class="st200" d="M144.3,261.2c2.2,2.9,4.4,5.2,6.5,6.9c-5.7,1.4-12-0.6-15.8-5.6c-3.8-5-4-11.6-1.1-16.7
				C136.5,250,139.7,255.1,144.3,261.2z"/>
		</g>
		<g id="XMLID_2162_">
			<path id="XMLID_2166_" class="st199" d="M130.5,427.5c-0.2,0.5-0.4,1.1-0.6,1.7c-5,13.5-45.5,4.2-56.6-19.3
				c-11-23.5,2-59.1,15.9-55.6c1.2,0.3,2.2,0.6,3.2,1c11.5,4.3,9.6,13.8,19.8,35.5C123,413.7,138.9,403.3,130.5,427.5z"/>
			<path id="XMLID_2165_" class="st124" d="M130.5,427.5c-14.2-1.1-33.5-10.3-40.6-25.4c-7.1-15.2-4.2-35.4,2.5-46.8
				c7.8,2.9,9.5,8.3,12.9,18.3c1.6,4.7,3.6,10.3,6.9,17.2c1.6,3.3,3.2,6,4.9,8.1C127.1,411.4,137.7,406.8,130.5,427.5z"/>
			<path id="XMLID_2163_" class="st200" d="M112.2,390.7c1.6,3.3,3.2,6,4.9,8.1c-5.9,0.2-11.6-3.1-14.3-8.7
				c-2.7-5.7-1.5-12.2,2.5-16.6C106.9,378.1,108.9,383.8,112.2,390.7z"/>
		</g>
		<path id="XMLID_2624_" class="st201" d="M460,410.7c-15,19.8-32.8,37.2-52.8,51.9c-0.8,0.6-1.5,1.1-2.3,1.7
			c-42,30-93.3,47.7-148.9,47.7c-56.4,0-108.6-18.3-150.9-49.2c-11.4-8.3-22.1-17.6-32-27.7c-13.5-13.8-25.5-29.1-35.6-45.6
			c10.7,3.1,20.2,9.2,27.5,17.2c4.5,4.9,8.2,10.6,10.8,16.8c1.6-1.2,3.2-2.4,4.9-3.5c5.2-3.3,10.9-5.9,16.9-7.5
			c4.7-1.2,9.6-1.9,14.6-2c0.2,0,0.5,0,0.8,0c6.8,0,13.4,1.1,19.5,3.2c6.3,2.2,12.1,5.3,17.2,9.3c2.9-3.9,6.2-7.5,9.7-10.8
			c2.7-2.5,5.6-4.8,8.7-6.9c0.4-0.3,0.9-0.6,1.3-0.9c0,0,0,0,0,0c12.5-8.3,27.5-13.1,43.7-13.1c6.8,0,13.5,0.9,19.9,2.5
			c4.1,1.1,8.1,2.4,12,4.2c9.7,4.3,18.4,10.4,25.5,18c10.1-13,23.7-23.2,39.5-29.1c4-1.5,8.2-2.7,12.5-3.6c4.9-1,9.9-1.7,15-1.9
			c1.2-0.1,2.4-0.1,3.6-0.1c15.8,0,30.6,4.1,43.4,11.3c0.5,0.3,1.1,0.6,1.6,0.9c10.1,5.9,18.9,13.8,26,23.1c2.1,2.8,4.1,5.7,5.8,8.7
			c10.5-9.2,24.3-14.8,39.5-14.8C458.2,410.7,459.1,410.7,460,410.7z"/>
		<path id="XMLID_2607_" class="st42" d="M407.2,462.6c-0.8,0.6-1.5,1.1-2.3,1.7c-42,30-93.3,47.7-148.9,47.7
			c-56.4,0-108.6-18.3-150.9-49.2c2.6-0.4,5.2-0.5,7.9-0.5c13.8,0,26.5,4.7,36.7,12.5c2.5-3.4,5.3-6.5,8.3-9.4
			c6.5-6.3,14.1-11.5,22.5-15.3c9.9-4.5,20.9-7,32.5-7c2.8,0,5.6,0.1,8.4,0.4c19.2,2,36.4,11,49,24.2c16.3-21,41.8-34.6,70.5-34.6
			c3.1,0,6.2,0.2,9.2,0.5c18.9,1.9,36.1,9.8,49.6,21.7C402.4,457.6,404.8,460.1,407.2,462.6z"/>
		<g id="XMLID_2157_">
			<path id="XMLID_2159_" class="st1" d="M226.2,186.2c0,8-5.1,14.7-12.3,17.1c-1.8,0.6-3.8,1-5.8,1c-10,0-18.1-8.1-18.1-18.1
				c0-7.2,9.3-21,14.6-28.3c1.7-2.4,5.3-2.4,7,0c0.7,1,1.5,2.1,2.3,3.3C219.2,168.8,226.2,180,226.2,186.2z"/>
			<path id="XMLID_2158_" class="st202" d="M226.2,186.2c0,8-5.1,14.7-12.3,17.1c-7.1-2.4-12.3-9.2-12.3-17.1c0-6.2,7-17.4,12.3-25
				C219.2,168.8,226.2,180,226.2,186.2z"/>
		</g>
		<g id="XMLID_2147_">
			<path id="XMLID_2156_" class="st1" d="M387.7,66.6c0,8-5.1,14.7-12.3,17.1c-1.8,0.6-3.8,1-5.8,1c-10,0-18.1-8.1-18.1-18.1
				c0-7.2,9.3-21,14.6-28.3c1.7-2.4,5.3-2.4,7,0c0.7,1,1.5,2.1,2.3,3.3C380.8,49.2,387.7,60.4,387.7,66.6z"/>
			<path id="XMLID_2152_" class="st202" d="M387.7,66.6c0,8-5.1,14.7-12.3,17.1c-7.1-2.4-12.3-9.2-12.3-17.1c0-6.2,7-17.4,12.3-25
				C380.8,49.2,387.7,60.4,387.7,66.6z"/>
		</g>
		<g id="XMLID_2061_">
			<path id="XMLID_2138_" class="st1" d="M257.6,42.5c0,8-5.1,14.7-12.3,17.1c-1.8,0.6-3.8,1-5.8,1c-10,0-18.1-8.1-18.1-18.1
				c0-7.2,9.3-21,14.6-28.3c1.7-2.4,5.3-2.4,7,0c0.7,1,1.5,2.1,2.3,3.3C250.6,25.1,257.6,36.3,257.6,42.5z"/>
			<path id="XMLID_2077_" class="st202" d="M257.6,42.5c0,8-5.1,14.7-12.3,17.1c-7.1-2.4-12.3-9.2-12.3-17.1c0-6.2,7-17.4,12.3-25
				C250.6,25.1,257.6,36.3,257.6,42.5z"/>
		</g>
		<g id="XMLID_2055_">
			<path id="XMLID_2060_" class="st1" d="M393.6,316.1c0,8-5.1,14.7-12.3,17.1c-1.8,0.6-3.8,1-5.8,1c-10,0-18.1-8.1-18.1-18.1
				c0-7.2,9.3-21,14.6-28.3c1.7-2.4,5.3-2.4,7,0c0.7,1,1.5,2.1,2.3,3.3C386.6,298.6,393.6,309.9,393.6,316.1z"/>
			<path id="XMLID_2057_" class="st202" d="M393.6,316.1c0,8-5.1,14.7-12.3,17.1c-7.1-2.4-12.3-9.2-12.3-17.1c0-6.2,7-17.4,12.3-25
				C386.6,298.6,393.6,309.9,393.6,316.1z"/>
		</g>
		<g id="XMLID_1952_">
			<path id="XMLID_2050_" class="st1" d="M77.6,228.2c0,8-5.1,14.7-12.3,17.1c-1.8,0.6-3.8,1-5.8,1c-10,0-18.1-8.1-18.1-18.1
				c0-7.2,9.3-21,14.6-28.3c1.7-2.4,5.3-2.4,7,0c0.7,1,1.5,2.1,2.3,3.3C70.6,210.7,77.6,222,77.6,228.2z"/>
			<path id="XMLID_1956_" class="st202" d="M77.6,228.2c0,8-5.1,14.7-12.3,17.1c-7.1-2.4-12.3-9.2-12.3-17.1c0-6.2,7-17.4,12.3-25
				C70.6,210.7,77.6,222,77.6,228.2z"/>
		</g>
		<g id="XMLID_1937_">
			<path id="XMLID_1946_" class="st1" d="M159.5,348.4c0,8-5.1,14.7-12.3,17.1c-1.8,0.6-3.8,1-5.8,1c-10,0-18.1-8.1-18.1-18.1
				c0-7.2,9.3-21,14.6-28.3c1.7-2.4,5.3-2.4,7,0c0.7,1,1.5,2.1,2.3,3.3C152.5,331,159.5,342.2,159.5,348.4z"/>
			<path id="XMLID_1938_" class="st202" d="M159.5,348.4c0,8-5.1,14.7-12.3,17.1c-7.1-2.4-12.3-9.2-12.3-17.1c0-6.2,7-17.4,12.3-25
				C152.5,331,159.5,342.2,159.5,348.4z"/>
		</g>
	</g>
</g>
</svg>
